<mxfile host="app.diagrams.net" agent="Mozilla/5.0 (Macintosh; Intel Mac OS X 10_15_7) AppleWebKit/537.36 (KHTML, like Gecko) Chrome/116.0.0.0 Safari/537.36" version="26.1.0">
  <diagram name="Página-1" id="v7twWVKlyWXBJThtBeOq">
    <mxGraphModel dx="830" dy="510" grid="1" gridSize="10" guides="1" tooltips="1" connect="1" arrows="1" fold="1" page="1" pageScale="1" pageWidth="827" pageHeight="1169" math="0" shadow="0">
      <root>
        <mxCell id="0" />
        <mxCell id="1" parent="0" />
        <mxCell id="BbexcSJCjV8UkgEOPqxi-8" style="edgeStyle=orthogonalEdgeStyle;rounded=0;orthogonalLoop=1;jettySize=auto;html=1;entryX=0;entryY=0.5;entryDx=0;entryDy=0;" edge="1" parent="1" source="BbexcSJCjV8UkgEOPqxi-6">
          <mxGeometry relative="1" as="geometry">
            <mxPoint x="170" y="189.9999999999999" as="targetPoint" />
          </mxGeometry>
        </mxCell>
        <mxCell id="BbexcSJCjV8UkgEOPqxi-6" value="" style="ellipse;whiteSpace=wrap;html=1;aspect=fixed;fillColor=#d5e8d4;strokeColor=#82b366;" vertex="1" parent="1">
          <mxGeometry x="60" y="165" width="50" height="50" as="geometry" />
        </mxCell>
        <mxCell id="BbexcSJCjV8UkgEOPqxi-7" value="Compra um lote de cartas" style="text;html=1;align=center;verticalAlign=middle;whiteSpace=wrap;rounded=0;" vertex="1" parent="1">
          <mxGeometry x="55" y="230" width="60" height="30" as="geometry" />
        </mxCell>
        <mxCell id="BbexcSJCjV8UkgEOPqxi-21" value="" style="edgeStyle=orthogonalEdgeStyle;rounded=0;orthogonalLoop=1;jettySize=auto;html=1;" edge="1" parent="1" source="BbexcSJCjV8UkgEOPqxi-18" target="BbexcSJCjV8UkgEOPqxi-20">
          <mxGeometry relative="1" as="geometry" />
        </mxCell>
        <mxCell id="BbexcSJCjV8UkgEOPqxi-24" value="Carta individual" style="edgeLabel;html=1;align=center;verticalAlign=middle;resizable=0;points=[];" vertex="1" connectable="0" parent="BbexcSJCjV8UkgEOPqxi-21">
          <mxGeometry x="-0.2695" y="-2" relative="1" as="geometry">
            <mxPoint x="8" as="offset" />
          </mxGeometry>
        </mxCell>
        <mxCell id="BbexcSJCjV8UkgEOPqxi-23" value="" style="edgeStyle=orthogonalEdgeStyle;rounded=0;orthogonalLoop=1;jettySize=auto;html=1;" edge="1" parent="1" source="BbexcSJCjV8UkgEOPqxi-18" target="BbexcSJCjV8UkgEOPqxi-22">
          <mxGeometry relative="1" as="geometry" />
        </mxCell>
        <mxCell id="BbexcSJCjV8UkgEOPqxi-25" value="Pacote" style="edgeLabel;html=1;align=center;verticalAlign=middle;resizable=0;points=[];" vertex="1" connectable="0" parent="BbexcSJCjV8UkgEOPqxi-23">
          <mxGeometry x="-0.2938" y="2" relative="1" as="geometry">
            <mxPoint x="-2" as="offset" />
          </mxGeometry>
        </mxCell>
        <mxCell id="BbexcSJCjV8UkgEOPqxi-18" value="Carta individual&amp;nbsp;&lt;div&gt;ou pacote?&lt;/div&gt;" style="rhombus;whiteSpace=wrap;html=1;rounded=1;" vertex="1" parent="1">
          <mxGeometry x="170" y="130" width="120" height="120" as="geometry" />
        </mxCell>
        <mxCell id="BbexcSJCjV8UkgEOPqxi-27" value="" style="edgeStyle=orthogonalEdgeStyle;rounded=0;orthogonalLoop=1;jettySize=auto;html=1;" edge="1" parent="1" source="BbexcSJCjV8UkgEOPqxi-20" target="BbexcSJCjV8UkgEOPqxi-26">
          <mxGeometry relative="1" as="geometry" />
        </mxCell>
        <mxCell id="BbexcSJCjV8UkgEOPqxi-20" value="Verificar a condição da carta" style="whiteSpace=wrap;html=1;rounded=1;" vertex="1" parent="1">
          <mxGeometry x="390" y="160" width="120" height="60" as="geometry" />
        </mxCell>
        <mxCell id="BbexcSJCjV8UkgEOPqxi-40" value="" style="edgeStyle=orthogonalEdgeStyle;rounded=0;orthogonalLoop=1;jettySize=auto;html=1;" edge="1" parent="1" source="BbexcSJCjV8UkgEOPqxi-22" target="BbexcSJCjV8UkgEOPqxi-39">
          <mxGeometry relative="1" as="geometry" />
        </mxCell>
        <mxCell id="BbexcSJCjV8UkgEOPqxi-22" value="Inserir dados da coleção do pacote" style="whiteSpace=wrap;html=1;rounded=1;" vertex="1" parent="1">
          <mxGeometry x="170" y="360" width="120" height="60" as="geometry" />
        </mxCell>
        <mxCell id="BbexcSJCjV8UkgEOPqxi-29" value="" style="edgeStyle=orthogonalEdgeStyle;rounded=0;orthogonalLoop=1;jettySize=auto;html=1;" edge="1" parent="1" source="BbexcSJCjV8UkgEOPqxi-26" target="BbexcSJCjV8UkgEOPqxi-28">
          <mxGeometry relative="1" as="geometry" />
        </mxCell>
        <mxCell id="BbexcSJCjV8UkgEOPqxi-26" value="Insere dados básicos da carta no sistema" style="whiteSpace=wrap;html=1;rounded=1;" vertex="1" parent="1">
          <mxGeometry x="590" y="160" width="120" height="60" as="geometry" />
        </mxCell>
        <mxCell id="BbexcSJCjV8UkgEOPqxi-31" value="" style="edgeStyle=orthogonalEdgeStyle;rounded=0;orthogonalLoop=1;jettySize=auto;html=1;" edge="1" parent="1" source="BbexcSJCjV8UkgEOPqxi-28" target="BbexcSJCjV8UkgEOPqxi-30">
          <mxGeometry relative="1" as="geometry" />
        </mxCell>
        <mxCell id="BbexcSJCjV8UkgEOPqxi-28" value="Registra a carta a partir do banco de dados da liga" style="whiteSpace=wrap;html=1;rounded=1;" vertex="1" parent="1">
          <mxGeometry x="790" y="160" width="120" height="60" as="geometry" />
        </mxCell>
        <mxCell id="BbexcSJCjV8UkgEOPqxi-36" value="" style="edgeStyle=orthogonalEdgeStyle;rounded=0;orthogonalLoop=1;jettySize=auto;html=1;" edge="1" parent="1" source="BbexcSJCjV8UkgEOPqxi-30" target="BbexcSJCjV8UkgEOPqxi-35">
          <mxGeometry relative="1" as="geometry" />
        </mxCell>
        <mxCell id="BbexcSJCjV8UkgEOPqxi-30" value="Insere o preço da carta" style="whiteSpace=wrap;html=1;rounded=1;" vertex="1" parent="1">
          <mxGeometry x="990" y="160" width="120" height="60" as="geometry" />
        </mxCell>
        <mxCell id="BbexcSJCjV8UkgEOPqxi-34" value="" style="ellipse;whiteSpace=wrap;html=1;aspect=fixed;fillColor=#f8cecc;strokeColor=#b85450;" vertex="1" parent="1">
          <mxGeometry x="1225" y="320" width="50" height="50" as="geometry" />
        </mxCell>
        <mxCell id="BbexcSJCjV8UkgEOPqxi-37" style="edgeStyle=orthogonalEdgeStyle;rounded=0;orthogonalLoop=1;jettySize=auto;html=1;" edge="1" parent="1" source="BbexcSJCjV8UkgEOPqxi-35" target="BbexcSJCjV8UkgEOPqxi-34">
          <mxGeometry relative="1" as="geometry" />
        </mxCell>
        <mxCell id="BbexcSJCjV8UkgEOPqxi-35" value="Finaliza o cadastro da carta no sistema" style="whiteSpace=wrap;html=1;rounded=1;" vertex="1" parent="1">
          <mxGeometry x="1190" y="160" width="120" height="60" as="geometry" />
        </mxCell>
        <mxCell id="BbexcSJCjV8UkgEOPqxi-38" value="Fim" style="text;html=1;align=center;verticalAlign=middle;whiteSpace=wrap;rounded=0;" vertex="1" parent="1">
          <mxGeometry x="1220" y="390" width="60" height="30" as="geometry" />
        </mxCell>
        <mxCell id="BbexcSJCjV8UkgEOPqxi-42" value="" style="edgeStyle=orthogonalEdgeStyle;rounded=0;orthogonalLoop=1;jettySize=auto;html=1;" edge="1" parent="1" source="BbexcSJCjV8UkgEOPqxi-39" target="BbexcSJCjV8UkgEOPqxi-41">
          <mxGeometry relative="1" as="geometry" />
        </mxCell>
        <mxCell id="BbexcSJCjV8UkgEOPqxi-39" value="Registrar o preço do pacote" style="whiteSpace=wrap;html=1;rounded=1;" vertex="1" parent="1">
          <mxGeometry x="370" y="360" width="120" height="60" as="geometry" />
        </mxCell>
        <mxCell id="BbexcSJCjV8UkgEOPqxi-44" value="" style="edgeStyle=orthogonalEdgeStyle;rounded=0;orthogonalLoop=1;jettySize=auto;html=1;" edge="1" parent="1" source="BbexcSJCjV8UkgEOPqxi-41" target="BbexcSJCjV8UkgEOPqxi-43">
          <mxGeometry relative="1" as="geometry" />
        </mxCell>
        <mxCell id="BbexcSJCjV8UkgEOPqxi-41" value="Cadastrar cartas pertencentes a coleção" style="whiteSpace=wrap;html=1;rounded=1;" vertex="1" parent="1">
          <mxGeometry x="570" y="360" width="120" height="60" as="geometry" />
        </mxCell>
        <mxCell id="BbexcSJCjV8UkgEOPqxi-46" style="edgeStyle=orthogonalEdgeStyle;rounded=0;orthogonalLoop=1;jettySize=auto;html=1;entryX=0.5;entryY=1;entryDx=0;entryDy=0;" edge="1" parent="1" source="BbexcSJCjV8UkgEOPqxi-43" target="BbexcSJCjV8UkgEOPqxi-34">
          <mxGeometry relative="1" as="geometry" />
        </mxCell>
        <mxCell id="BbexcSJCjV8UkgEOPqxi-43" value="Finalizar o cadastro do pacote no sistema" style="whiteSpace=wrap;html=1;rounded=1;" vertex="1" parent="1">
          <mxGeometry x="770" y="360" width="120" height="60" as="geometry" />
        </mxCell>
      </root>
    </mxGraphModel>
  </diagram>
</mxfile>
